<svg xmlns="http://www.w3.org/2000/svg" width="251" height="64" viewBox="0 0 251 64" fill="none"><path d="M157.495 25.0173C157.495 24.737 157.489 24.5467 157.495 24.3564C157.648 19.4566 157.561 14.5553 157.585 9.6555C157.585 9.53895 157.6 9.42386 157.61 9.28223H182.454C182.483 9.30878 182.495 9.31616 182.504 9.32796C182.513 9.33977 182.52 9.35452 182.522 9.3678C182.533 9.47108 182.551 9.57436 182.551 9.67763C182.551 27.4473 182.55 45.217 182.547 62.9881C182.547 63.0457 182.525 63.1032 182.514 63.1578C182.19 63.2463 159.354 63.2758 158.647 63.1858C158.635 63.025 158.613 62.8524 158.613 62.6813C158.61 61.2354 158.612 59.7895 158.612 58.3436C158.612 58.1695 158.612 57.9954 158.612 57.8198C158.581 57.808 158.55 57.7947 158.517 57.7829C158.3 57.9703 158.078 58.1518 157.867 58.3451C154.686 61.2413 150.978 63.0368 146.725 63.7052C145.054 63.9678 143.378 64.0268 141.695 63.9471C138.272 63.7849 134.988 63.0044 131.828 61.6927C130.845 61.2841 129.986 60.6585 129.114 60.0595C127.81 59.1639 126.625 58.1297 125.54 56.9818C123.787 55.1287 122.306 53.0823 121.296 50.7291C120.346 48.5115 119.747 46.1981 119.563 43.7829C119.296 40.298 119.611 36.881 120.743 33.5614C121.605 31.034 122.925 28.7752 124.719 26.7908C125.998 25.3759 127.441 24.1572 129.083 23.1996C130.709 22.251 132.455 21.5575 134.268 21.0441C135.903 20.5808 137.561 20.268 139.261 20.1323C140.526 20.0305 141.792 20.0128 143.054 20.0954C145.226 20.237 147.353 20.6531 149.435 21.3052C151.059 21.8142 152.635 22.4383 154.155 23.1996C155.152 23.6998 156.114 24.2708 157.092 24.8093C157.194 24.8654 157.297 24.917 157.496 25.0218L157.495 25.0173ZM157.495 41.5152C157.495 39.966 157.501 38.4154 157.493 36.8662C157.489 35.8748 157.324 34.9113 156.924 33.9951C155.769 31.3468 153.002 29.6471 150.051 30.1709C147.835 30.5648 146.242 31.8366 145.264 33.8668C144.796 34.8376 144.644 35.8792 144.629 36.9459C144.612 38.2561 144.601 39.5662 144.584 40.8764C144.578 41.3219 144.542 41.769 144.551 42.2146C144.562 42.7944 144.612 43.3727 144.627 43.9526C144.65 44.8894 144.632 45.8293 144.678 46.7662C144.759 48.4083 145.392 49.8217 146.543 50.9991C148.032 52.5232 149.86 53.1281 151.946 52.8654C153.628 52.6545 154.994 51.8179 156.047 50.4842C157.026 49.2448 157.476 47.8181 157.492 46.2527C157.508 44.674 157.495 43.0939 157.495 41.5137V41.5152Z" fill="#2B3990"></path><path d="M250.315 36.8152H226.336C226.333 36.4464 226.333 36.0937 226.328 35.7426C226.311 34.6361 226.171 33.5487 225.847 32.4849C225.225 30.4356 223.845 29.2184 221.764 28.8097C220.934 28.6474 220.091 28.522 219.248 28.4822C217.602 28.404 216.08 28.7876 214.86 29.9812C213.866 30.952 213.267 32.1441 213.121 33.5207C212.978 34.8647 212.882 36.2177 212.848 37.5691C212.793 39.7734 212.79 41.9791 212.799 44.1848C212.804 45.2412 212.848 46.2991 212.935 47.351C213.012 48.2761 213.276 49.1643 213.717 49.989C214.463 51.3833 215.635 52.2582 217.14 52.6551C219.033 53.1538 220.936 53.1788 222.813 52.5459C224.312 52.0398 225.331 51.0218 225.96 49.5744C226.258 48.8884 226.39 48.1817 226.37 47.4454C226.34 46.3743 226.286 45.3046 226.244 44.235C226.238 44.0727 226.244 43.9104 226.244 43.7201H250.317C250.343 43.8307 250.387 43.9517 250.404 44.0771C250.66 46.0778 250.389 48.0268 249.793 49.9374C249.128 52.0738 248.093 54.0316 246.823 55.8655C246.007 57.0429 244.886 57.8765 243.66 58.5744C241.743 59.6676 239.67 60.3566 237.54 60.8907C235.519 61.3968 233.471 61.7701 231.399 61.9973C230.1 62.1389 228.798 62.2673 227.494 62.3588C226.205 62.4488 224.911 62.4827 223.618 62.5417C223.173 62.5624 222.727 62.6051 222.283 62.5992C220.75 62.5801 219.217 62.5476 217.684 62.5107C216.837 62.4901 215.989 62.4606 215.142 62.4222C214.207 62.3809 213.273 62.3233 212.337 62.2761C211.505 62.2333 210.672 62.2127 209.843 62.1522C208.628 62.0637 207.414 61.9648 206.203 61.8394C205.154 61.7317 204.106 61.596 203.063 61.4455C200.801 61.1179 198.593 60.5794 196.504 59.6307C194.23 58.598 192.184 57.2317 190.472 55.3978C188.817 53.6244 187.674 51.5603 186.993 49.2322C186.388 47.1636 186.046 45.0553 185.941 42.9042C185.837 40.7722 185.941 38.6521 186.207 36.5349C186.679 32.8036 188.228 29.5946 190.75 26.8238C192.402 25.0076 194.316 23.5381 196.492 22.4124C197.967 21.6496 199.539 21.1436 201.157 20.7777C203.131 20.3321 205.124 20.0045 207.135 19.7847C208.316 19.6549 209.497 19.5265 210.682 19.4306C212.029 19.3214 213.379 19.2506 214.728 19.1577C216.955 19.0042 219.188 18.9629 221.42 18.985C222.774 18.9983 224.132 18.9998 225.48 19.109C228.618 19.3613 231.756 19.6357 234.852 20.2524C237.608 20.8013 240.281 21.5994 242.782 22.9096C244.12 23.6104 245.395 24.4071 246.495 25.4488C247.909 26.7855 248.871 28.4143 249.501 30.2467C250.023 31.7649 250.295 33.3259 250.37 34.9282C250.399 35.5537 250.433 36.1734 250.317 36.8182L250.315 36.8152Z" fill="#2B3990"></path><path d="M73.4883 63.3182V9.19922H97.6934C97.7421 10.35 97.7081 11.5053 97.714 12.6605C97.7199 13.8231 97.714 14.9857 97.714 16.1483V47.4061C97.714 48.5643 97.714 49.7225 97.714 50.9293H118.97V63.3182H73.4854H73.4883Z" fill="#2B3990"></path><path d="M14.6904 18.9078C14.8158 18.7234 14.8955 18.5685 15.0091 18.4431C15.7453 17.6242 16.4859 16.8098 17.2295 15.9969C17.501 15.7003 17.7872 15.4185 18.0557 15.119C18.2578 14.8933 18.4865 14.8431 18.7772 14.9095C19.7701 15.1353 20.7837 15.1913 21.7943 15.1234C23.5574 15.0054 25.2556 14.5805 26.8991 13.9299C28.9986 13.0992 30.9741 12.0266 32.87 10.8123C34.8146 9.5671 36.7311 8.27613 38.6668 7.01614C40.7161 5.68238 42.8244 4.4519 45.0994 3.53273C46.4981 2.96766 47.9307 2.55897 49.4459 2.41881C51.2355 2.25356 52.9174 2.61061 54.5064 3.38077C57.3731 4.76616 59.7071 6.77713 61.3965 9.49628C62.5841 11.4069 63.3071 13.4931 63.6317 15.7166C64.0684 18.7146 63.7349 21.655 62.9589 24.5601C61.9512 28.3341 60.2781 31.8131 58.2406 35.1283C57.3908 36.5108 56.5056 37.8726 55.7989 39.3406C54.8163 41.3811 54.0963 43.5012 53.9045 45.7733C53.7687 47.3918 53.9591 48.9823 54.3987 50.5448C54.7086 51.6484 55.0405 52.7461 55.3356 53.8526C55.489 54.4265 55.5599 55.0137 55.5067 55.6187C55.4389 56.4065 55.1615 57.1088 54.651 57.6901C53.9945 58.4396 53.2981 59.1581 52.584 59.853C51.988 60.4329 51.3609 60.9891 50.7088 61.5055C49.5433 62.4291 48.2553 63.1373 46.8064 63.5194C45.4638 63.8735 44.1301 63.8956 42.8273 63.3468C41.3343 62.7183 40.3516 61.5822 39.6892 60.1363C39.1404 58.9339 38.9781 57.6562 38.9294 56.3534C38.8925 55.3428 38.8763 54.3277 38.7863 53.3215C38.6874 52.2075 38.351 51.1615 37.6237 50.2777C36.8786 49.3718 35.9152 48.8746 34.7496 48.7359C33.7124 48.6135 32.7446 48.8525 31.7915 49.2184C31.5761 49.301 31.4713 49.4412 31.4123 49.6684C31.194 50.5094 31.2545 51.3518 31.374 52.1957C31.5318 53.3008 31.6956 54.4059 31.8461 55.5109C31.9405 56.2073 31.9479 56.9052 31.8623 57.6031C31.7325 58.6698 31.2441 59.5506 30.4755 60.2839C29.754 60.9729 29.0399 61.6693 28.3008 62.3376C27.6058 62.9647 26.7501 63.2774 25.8383 63.4028C23.8554 63.6728 21.8873 63.543 19.9486 63.0517C19.0914 62.8348 18.2829 62.497 17.6116 61.892C16.663 61.0378 16.2144 59.9386 16.0861 58.7022C15.9622 57.5131 16.0049 56.3209 16.1422 55.1347C16.3384 53.4351 16.5744 51.7398 16.7662 50.0387C16.8813 49.0163 16.8872 47.9879 16.7648 46.964C16.5656 45.2968 15.7792 43.9025 14.652 42.7163C13.4525 41.4548 12.1675 40.2745 10.9267 39.0514C9.99278 38.1323 9.04853 37.2205 8.14855 36.2703C7.12612 35.1903 6.1081 34.1 5.15649 32.958C3.00391 30.3746 1.50492 27.4548 0.842477 24.1396C0.166754 20.7595 0.48101 17.4738 1.87377 14.3061C2.69703 12.4338 3.83602 10.7651 5.19632 9.24989C7.07153 7.16073 9.11493 5.25157 11.4032 3.61831C13.6665 2.00275 16.151 0.894724 18.9203 0.502268C20.8206 0.233746 22.6914 0.345876 24.4854 1.10423C25.5728 1.56308 26.5244 2.21373 27.2724 3.13733C28.5383 4.7042 28.5073 6.46139 27.2739 8.04449C26.5628 8.95777 25.6687 9.66891 24.841 10.4523C23.9838 11.2638 22.9304 11.5117 21.7766 11.3405C20.6435 11.1723 19.596 10.7607 18.6193 10.1646C18.5824 10.1425 18.5529 10.1056 18.5219 10.0761C18.8067 9.54497 21.7043 6.77418 22.386 6.3832C22.6574 6.50123 22.9378 6.62074 23.314 6.78303C23.1782 6.43631 22.9761 6.28582 22.7932 6.12943C21.9935 5.44485 21.0611 5.03616 20.0372 4.82518C18.2269 4.45338 16.452 4.64961 14.7096 5.20141C12.5983 5.86976 10.6936 6.93942 8.97772 8.3263C8.51297 8.70252 8.14413 9.21448 7.79004 9.70579C6.44449 11.5663 5.53566 13.6244 5.1078 15.8862C4.61502 18.4888 4.81567 21.0398 5.66106 23.5465C6.45482 25.9012 7.80479 27.9255 9.39672 29.7977C10.1772 30.7154 10.9872 31.6125 11.84 32.4638C13.727 34.3479 15.6627 36.1833 17.5511 38.0659C18.6724 39.1842 19.6816 40.3955 20.3514 41.8547C20.8044 42.8417 21.0611 43.8715 21.1511 44.9515C21.2986 46.7471 21.0655 48.5161 20.8309 50.2895C20.6568 51.6026 20.4798 52.9157 20.3603 54.2333C20.3012 54.8795 20.3367 55.5419 20.3927 56.1911C20.5122 57.5986 21.3443 58.4145 22.6604 58.7996C23.6518 59.0888 24.6698 59.2039 25.6952 59.254C26.157 59.2762 26.6188 59.2614 27.0821 59.2555C27.2267 59.254 27.3698 59.2289 27.5173 59.2157C27.6383 58.7347 27.5557 58.2906 27.4967 57.8539C27.358 56.8211 27.1824 55.7942 27.0319 54.7629C26.8918 53.801 26.8549 52.8405 27.0423 51.8756C27.2577 50.769 27.7991 49.8425 28.5825 49.0561C29.4766 48.1605 30.3678 47.2576 31.3179 46.4225C32.2917 45.5668 33.4395 44.9855 34.7068 44.6904C35.3118 44.5488 35.9388 44.4204 36.554 44.4233C38.9323 44.4351 40.8134 45.4015 42.0498 47.4818C42.7167 48.6031 43.059 49.8336 43.1475 51.1275C43.2301 52.33 43.2508 53.5354 43.3363 54.7378C43.4027 55.6629 43.596 56.5644 44.0386 57.3965C44.8088 58.8468 46.0407 59.5152 47.6489 59.4886C48.3984 59.4768 49.1154 59.2452 49.7985 58.9383C50.1511 58.7804 50.4846 58.5827 50.8298 58.4086C51.0216 58.3113 51.1027 58.1519 51.1396 57.9483C51.2281 57.4511 51.1455 56.9657 51.0142 56.4921C50.7368 55.4873 50.4373 54.49 50.1467 53.4882C49.26 50.4385 49.3485 47.4007 50.247 44.3717C50.8268 42.4168 51.7209 40.6035 52.7404 38.8478C53.6758 37.2382 54.6687 35.661 55.5628 34.0292C57.0293 31.3558 58.1875 28.554 58.8986 25.5781C59.3472 23.697 59.5493 21.7893 59.4519 19.8595C59.3206 17.2731 58.667 14.8343 57.2477 12.6359C56.1972 11.01 54.8089 9.71464 53.2465 8.59924C52.0485 7.74499 50.7634 7.07368 49.3028 6.78156C47.9115 6.50418 46.5482 6.65172 45.2012 7.02647C43.5429 7.48827 41.9952 8.21859 40.4903 9.04629C38.0973 10.3609 35.868 11.9336 33.5929 13.4341C31.6027 14.7457 29.5799 16.0072 27.4377 17.0606C25.4533 18.0359 23.3981 18.806 21.2042 19.1764C19.3954 19.4818 17.5954 19.4759 15.7969 19.11C15.4517 19.0406 15.105 18.9831 14.6889 18.9064L14.6904 18.9078Z" fill="#2B3990"></path></svg>